# xmcd CD database file
#
# Track frame offsets:
#	150
#	24147
#	44953
#	52993
#	72496
#	86279
#	103910
#	112536
#	125682
#	137132
#
# Disc length: 2028 seconds
#
# Revision: 0
# Processed by: cddbd v1.4PL0 Copyright (c) Steve Scherf et al.
# Submitted via: CDex 1.51
#
DISCID=8507ea0a
DTITLE=Billy Dean - Acoustically Yours
DYEAR=1999
DGENRE=Country
TTITLE0=Only The Wind
TTITLE1=I Wanna Take Care Of You
TTITLE2=Rubber Duckie
TTITLE3=Somewhere In My Broken Heart
TTITLE4=Billy The Kid
TTITLE5=It's What I Do
TTITLE6=Do-Re-Mi
TTITLE7=I'm Not Needed Here Now
TTITLE8=Only Here For A Little While
TTITLE9=If There Hadn't Been You
EXTD=YEAR: 1999
EXTT0=
EXTT1=
EXTT2=
EXTT3=
EXTT4=
EXTT5=
EXTT6=
EXTT7=
EXTT8=
EXTT9=
PLAYORDER=
